<mxfile host="app.diagrams.net" agent="Mozilla/5.0 (Macintosh; Intel Mac OS X 10.15; rv:139.0) Gecko/20100101 Firefox/139.0" version="27.1.1">
  <diagram name="Page-1" id="LuMB66vNHXHKR0TOyEuT">
    <mxGraphModel dx="1234" dy="723" grid="1" gridSize="10" guides="1" tooltips="1" connect="1" arrows="0" fold="1" page="1" pageScale="1" pageWidth="1100" pageHeight="850" math="0" shadow="0">
      <root>
        <mxCell id="0" />
        <mxCell id="1" parent="0" />
        <mxCell id="YyHn47AA8LiJZKTJ-ZT5-3" value="GraphQL Go&#xa;Gateway" style="shape=image;verticalLabelPosition=bottom;labelBackgroundColor=default;verticalAlign=top;aspect=fixed;imageAspect=0;editableCssRules=.*;image=data:image/svg+xml,PHN2ZyB4bWxucz0iaHR0cDovL3d3dy53My5vcmcvMjAwMC9zdmciIHdpZHRoPSI3MyIgdmlld0JveD0iMCAwIDczIDczIiBoZWlnaHQ9IjczIj48ZyBmaWxsLXJ1bGU9Im5vbnplcm8iIGZpbGw9Im5vbmUiPjxyZWN0IHk9IjEiIHg9IjEiIHdpZHRoPSI3MSIgc3Ryb2tlLXdpZHRoPSIyIiBzdHJva2U9IiM2NDBiNDciIHJ4PSIxNCIgaGVpZ2h0PSI3MSIgZmlsbD0iI2ZmZiIvPjxnIHRyYW5zZm9ybT0idHJhbnNsYXRlKDEzIDExKSIgZmlsbD0iI2U1MzVhYiI+PHBhdGggdHJhbnNmb3JtPSJtYXRyaXgoLS44NjYwMTkwNSAtLjUwMDAxMSAuNTAwMDExIC0uODY2MDE5MDUgMTUuNjU4Nzk3IDQ1LjMxMzI5NSkiIGQ9Im0xMi44MDUzMTUtLjU3MDgxN2gyLjE5MDEzNXY0Mi4yNTkwNmgtMi4xOTAxMzV6Ii8+PHBhdGggZD0ibTEuOTUyNjk0IDM1LjM4NTk3OWg0Mi4yNTk5ODl2Mi4xOTAxODRoLTQyLjI1OTk4OXoiLz48cGF0aCB0cmFuc2Zvcm09Im1hdHJpeCgtLjg2NjAxOTA1IC0uNTAwMDExIC41MDAwMTEgLS44NjYwMTkwNSA1LjA2MjE5MSA4NC44OTY4ODIpIiBkPSJtMS43MDEzNDIgNDAuNjc1MTUyaDI0LjQwODEzNnYyLjE5MDEzNWgtMjQuNDA4MTM2eiIvPjxwYXRoIHRyYW5zZm9ybT0ibWF0cml4KC0uODY2MDE5MDUgLS41MDAwMTEgLjUwMDAxMSAtLjg2NjAxOTA1IDU1LjIzMTE0OSAzNC43MjQ2MjIpIiBkPSJtMjAuMDYzODQyIDguODY3NDg0aDI0LjQwODEzNnYyLjE5MDEzNWgtMjQuNDA4MTM2eiIvPjxwYXRoIHRyYW5zZm9ybT0ibWF0cml4KC0uNTAwMDExIC0uODY2MDE5MDUgLjg2NjAxOTA1IC0uNTAwMDExIDEyLjI0NjUxNyAyNi45Nzg4NTIpIiBkPSJtMTIuODE2Mi0yLjI0OTg1NWgyLjE5MDEzNXYyNC40MDgxMzZoLTIuMTkwMTM1eiIvPjxwYXRoIHRyYW5zZm9ybT0ibWF0cml4KC0uNTAwMDExIC0uODY2MDE5MDUgLjg2NjAxOTA1IC0uNTAwMDExIDMwLjYyMDE4MiA1OC43OTY1MjkpIiBkPSJtMTEuMTUzNDA4IDE5LjQ2NDA0MWg0Mi4yNTkwNnYyLjE5MDEzNWgtNDIuMjU5MDZ6Ii8+PHBhdGggZD0ibTMuNjI4MzE2IDEzLjY1NTY2M2gyLjE5MDE4NHYyNC40MDg2NzNoLTIuMTkwMTg0eiIvPjxwYXRoIGQ9Im00MC4zNjAwNzEgMTMuNjU1NjYzaDIuMTkwMTg0djI0LjQwODY3M2gtMi4xOTAxODR6Ii8+PHBhdGggdHJhbnNmb3JtPSJtYXRyaXgoLS41MDAwMTEgLS44NjYwMTkwNSAuODY2MDE5MDUgLS41MDAwMTEgMTIuMjM4ODIxIDkwLjU4MjA2NykiIGQ9Im0zMS4zMTEyODIgMzEuMTQzODAxaDEuOTEzMDd2MjEuMjI4NDgyaC0xLjkxMzA3eiIvPjxwYXRoIGQ9Im00NS40NTI5MDc3IDM4Ljc3NjgwNThjLTEuMjY2NjEyMiAyLjIwMzM3NzUtNC4wOTAxMDIgMi45NTU0Mjg1LTYuMjkzNDc5NSAxLjY4ODgxNjMtMi4yMDMzNzc1LTEuMjY2NjEyMy0yLjk1NTQyODUtNC4wOTAxMDItMS42ODg4MTYzLTYuMjkzNDc5NiAxLjI2NjYxMjItMi4yMDMzNzc1IDQuMDkwMTAyLTIuOTU1NDI4NSA2LjI5MzQ3OTUtMS42ODg4MTYzIDIuMjE2NTcxNCAxLjI3OTgwNjEgMi45Njg2MjI1IDQuMDkwMTAyIDEuNjg4ODE2MyA2LjI5MzQ3OTYiLz48cGF0aCBkPSJtOC42OTQ3NjUyMyAxNy41NDc4NTdjLTEuMjY2NjEyMjQgMi4yMDMzNzc1LTQuMDkwMTAyMDEgMi45NTU0Mjg1LTYuMjkzNDc5NTQgMS42ODg4MTYzcy0yLjk1NTQyODU0LTQuMDkwMTAyLTEuNjg4ODE2MzEtNi4yOTM0Nzk1YzEuMjY2NjEyMjMtMi4yMDMzNzc2IDQuMDkwMTAyLTIuOTU1NDI4NTkgNi4yOTM0Nzk1My0xLjY4ODgxNjQgMi4yMDMzNzc1NCAxLjI3OTgwNjIgMi45NTU0Mjg1NSA0LjA5MDEwMiAxLjY4ODgxNjMyIDYuMjkzNDc5NiIvPjxwYXRoIGQ9Im0uNzI1NjYzMjYgMzguNzc2ODA1OGMtMS4yNjY2MTIyNC0yLjIwMzM3NzYtLjUxNDU2MTIyLTUuMDEzNjczNSAxLjY4ODgxNjMxLTYuMjkzNDc5NiAyLjIwMzM3NzUzLTEuMjY2NjEyMiA1LjAxMzY3MzQyLS41MTQ1NjEyIDYuMjkzNDc5NTMgMS42ODg4MTYzIDEuMjY2NjEyMjQgMi4yMDMzNzc2LjUxNDU2MTIyIDUuMDEzNjczNS0xLjY4ODgxNjMxIDYuMjkzNDc5Ni0yLjIxNjU3MTQxIDEuMjY2NjEyMi01LjAyNjg2NzMuNTE0NTYxMi02LjI5MzQ3OTUzLTEuNjg4ODE2MyIvPjxwYXRoIGQ9Im0zNy40ODM4MDU4IDE3LjU0Nzg1N2MtMS4yNjY2MTIzLTIuMjAzMzc3Ni0uNTE0NTYxMi01LjAxMzY3MzQgMS42ODg4MTYzLTYuMjkzNDc5NiAyLjIwMzM3NzUtMS4yNjY2MTIxOSA1LjAxMzY3MzQtLjUxNDU2MTIgNi4yOTM0Nzk1IDEuNjg4ODE2NCAxLjI2NjYxMjMgMi4yMDMzNzc1LjUxNDU2MTIgNS4wMTM2NzM0LTEuNjg4ODE2MyA2LjI5MzQ3OTUtMi4yMDMzNzc1IDEuMjY2NjEyMi01LjAyNjg2NzMuNTE0NTYxMi02LjI5MzQ3OTUtMS42ODg4MTYzIi8+PHBhdGggZD0ibTIzLjA4OTI4NTUgNTEuNjkzNjExOGMtMi41NDY0MTgzIDAtNC42MDQ2NjMyLTIuMDU4MjQ0OS00LjYwNDY2MzItNC42MDQ2NjMzIDAtMi41NDY0MTgzIDIuMDU4MjQ0OS00LjYwNDY2MzIgNC42MDQ2NjMyLTQuNjA0NjYzMnM0LjYwNDY2MzIgMi4wNTgyNDQ5IDQuNjA0NjYzMiA0LjYwNDY2MzJjMCAyLjUzMzIyNDUtMi4wNTgyNDQ5IDQuNjA0NjYzMy00LjYwNDY2MzIgNC42MDQ2NjMzIi8+PHBhdGggZD0ibTIzLjA4OTI4NTUgOS4yMzU3MTQyYy0yLjU0NjQxODMgMC00LjYwNDY2MzItMi4wNTgyNDQ4OC00LjYwNDY2MzItNC42MDQ2NjMyMiAwLTIuNTQ2NDE4MzUgMi4wNTgyNDQ5LTQuNjA0NjYzMjMgNC42MDQ2NjMyLTQuNjA0NjYzMjNzNC42MDQ2NjMyIDIuMDU4MjQ0ODggNC42MDQ2NjMyIDQuNjA0NjYzMjNjMCAyLjU0NjQxODM0LTIuMDU4MjQ0OSA0LjYwNDY2MzIyLTQuNjA0NjYzMiA0LjYwNDY2MzIyIi8+PC9nPjwvZz48L3N2Zz4=;" parent="1" vertex="1">
          <mxGeometry x="499.38" y="303.75" width="93" height="93" as="geometry" />
        </mxCell>
        <mxCell id="YyHn47AA8LiJZKTJ-ZT5-4" value="" style="shape=image;verticalLabelPosition=bottom;labelBackgroundColor=default;verticalAlign=top;aspect=fixed;imageAspect=0;editableCssRules=.*;image=data:image/svg+xml,PHN2ZyB4bWw6c3BhY2U9InByZXNlcnZlIiB2aWV3Qm94PSIwIDAgNDk2IDQ5NiIgeG1sbnM6eGxpbms9Imh0dHA6Ly93d3cudzMub3JnLzE5OTkveGxpbmsiIHhtbG5zPSJodHRwOi8vd3d3LnczLm9yZy8yMDAwL3N2ZyIgaWQ9IkxheWVyXzEiIHZlcnNpb249IjEuMSIgd2lkdGg9IjQ5NiIgaGVpZ2h0PSI0OTYiPiYjeGE7PHBhdGggZD0iTTQ5Niw0NzYuOGMwLDEwLjQtOC44LDE5LjItMTkuMiwxOS4ySDE5LjJDOC44LDQ5NiwwLDQ4Ny4yLDAsNDc2LjhWMTkuMkMwLDguOCw4LjgsMCwxOS4yLDBoNDU3LjYmI3hBOyYjOTtDNDg3LjIsMCw0OTYsOC44LDQ5NiwxOS4yVjQ3Ni44eiIgc3R5bGU9ImZpbGw6IzhFQTVBNDsiLz4mI3hhOzxwYXRoIGQ9Ik0xNC40LDc5LjJ2MzgyLjRjMCw5LjYsOCwxNy42LDE3LjYsMTcuNmg0MzAuNGM5LjYsMCwxNy42LTgsMTcuNi0xNy42Vjc5LjJIMTQuNHoiIHN0eWxlPSJmaWxsOiNGREZGRkY7Ii8+JiN4YTs8cGF0aCBkPSJNNDYzLjIsNDgwYzkuNiwwLDE3LjYtOCwxNy42LTE3LjZWNzkuMkgxNC40IiBzdHlsZT0iZmlsbDojRThFRkVGOyIvPiYjeGE7PHJlY3QgaGVpZ2h0PSIyMi40IiB3aWR0aD0iNDY2LjQiIHN0eWxlPSJmaWxsOiNEQ0U1RTU7IiB5PSI3OS4yIiB4PSIxNC40Ii8+JiN4YTs8cGF0aCBkPSJNMzk1LjIsMzkuMmMwLDkuNi04LDE3LjYtMTcuNiwxNy42SDMyYy05LjYsMC04LTgtOC0xNy42bDAsMGMwLTkuNi0xLjYtMTcuNiw4LTE3LjZoMzQ1LjYmI3hBOyYjOTtDMzg3LjIsMjIuNCwzOTUuMiwyOS42LDM5NS4yLDM5LjJMMzk1LjIsMzkuMnoiIHN0eWxlPSJmaWxsOiNGREZGRkY7Ii8+JiN4YTs8cGF0aCBkPSJNMjQsMzkuMkwyNCwzOS4yYzAtOS42LTEuNi0xNy42LDgtMTcuNmgzNDUuNmM5LjYsMCwxNy42LDgsMTcuNiwxNy42bDAsMCIgc3R5bGU9ImZpbGw6I0U2RUZFRjsiLz4mI3hhOzxjaXJjbGUgcj0iOC44IiBjeT0iNDEuNiIgY3g9IjQyNi40IiBzdHlsZT0ib3BhY2l0eTowLjQ7ZmlsbDojQjFCQ0JDO2VuYWJsZS1iYWNrZ3JvdW5kOm5ldyAgICA7Ii8+JiN4YTs8Y2lyY2xlIHI9IjguOCIgY3k9IjM3LjYiIGN4PSI0MjYuNCIgc3R5bGU9ImZpbGw6I0ZGRkZGRjsiLz4mI3hhOzxwYXRoIGQ9Ik00MjAsMzEuMmMzLjItMy4yLDkuNi0zLjIsMTIuOCwwYzMuMiwzLjIsMy4yLDkuNiwwLDEyLjgiIHN0eWxlPSJmaWxsOiNFOEVGRUU7Ii8+JiN4YTs8Y2lyY2xlIHI9IjguOCIgY3k9IjQxLjYiIGN4PSI0NjIuNCIgc3R5bGU9Im9wYWNpdHk6MC40O2ZpbGw6I0IxQkNCQztlbmFibGUtYmFja2dyb3VuZDpuZXcgICAgOyIvPiYjeGE7PGNpcmNsZSByPSI4LjgiIGN5PSIzNy42IiBjeD0iNDYyLjQiIHN0eWxlPSJmaWxsOiNGRkZGRkY7Ii8+JiN4YTs8cGF0aCBkPSJNNDU2LDMxLjJjMy4yLTMuMiw5LjYtMy4yLDEyLjgsMGMzLjIsMy4yLDMuMiw5LjYsMCwxMi44IiBzdHlsZT0iZmlsbDojRThFRkVFOyIvPiYjeGE7PHBhdGggZD0iTTEwMC44LDMybC0wLjgtMC44aC0yLjRjLTAuOCwwLTAuOCwwLTAuOCwwLjhsLTEuNiw2LjRsMCwwbDAsMEw5Mi44LDMyYy0wLjgsMC0wLjgsMC0xLjYsMGgtMi40JiN4QTsmIzk7Qzg4LDMyLDg4LDMyLDg4LDMyLjhMODUuNiw0MGwwLDBsMCwwTDg0LDMzLjZjMC0xLjYsMC0xLjYtMC44LTEuNmgtMi40SDgwaC0wLjhoLTIuNEM3NiwzMiw3NiwzMiw3NiwzMi44bC0xLjYsNi40bDAsMGwwLDBMNzIsMzIuOCYjeEE7JiM5O2MwLTAuOC0wLjgtMC44LTEuNi0wLjhoLTEuNmMtMC44LDAtMC44LDAtMS42LDAuOGwtMS42LDYuNGwwLDBsMCwwbC0yLjQtNi40YzAtMC44LDAtMC44LTAuOC0wLjhINjBoLTAuOGMwLDAsMCwwLTAuOCwwSDU2JiN4QTsmIzk7YzAsMC0wLjgsMC0wLjgsMC44bC0xLjYsNi40bDAsMGwwLDBsLTIuNC02LjRjMC0wLjgtMC44LTAuOC0xLjYtMC44SDQ4Yy0wLjgsMC0wLjgsMC0wLjgsMC44bC0yLjQsNi40bDAsMGwwLDBsLTEuNi02LjQmI3hBOyYjOTtDNDIuNCwzMiw0Mi40LDMyLDQxLjYsMzJoLTIuNGMwLDAtMC44LDAtMC44LDAuOHYwLjhsNCwxMy42YzAsMC44LDAuOCwwLjgsMC44LDAuOGgyLjRjMC44LDAsMC44LDAsMC44LTAuOGwyLjQtNy4yYzAsMCwwLDAsMC0wLjgmI3hBOyYjOTtjMCwwLDAsMCwwLDAuOGwyLjQsNi40YzAsMC44LDAuOCwwLjgsMC44LDAuOGgyLjRjMC44LDAsMC44LDAsMC44LTAuOGw0LTEybDMuMiwxMmMwLDAuOCwwLjgsMC44LDAuOCwwLjhoMi40YzAuOCwwLDAuOCwwLDAuOC0wLjgmI3hBOyYjOTtsMy4yLTYuNGMwLDAsMCwwLDAtMC44YzAsMCwwLDAsMCwwLjhsMi40LDYuNGMwLDAuOCwwLjgsMC44LDAuOCwwLjhoMi40YzAuOCwwLDAuOCwwLDAuOC0wLjhsNC0xMmwzLjIsMTJjMCwwLjgsMC44LDAuOCwwLjgsMC44JiN4QTsmIzk7aDIuNGMwLjgsMCwwLjgsMCwwLjgtMC44bDMuMi02LjRjMCwwLDAsMCwwLTAuOGMwLDAsMCwwLDAsMC44bDIuNCw2LjRjMCwwLjgsMC44LDAuOCwwLjgsMC44SDk2YzAuOCwwLDAuOCwwLDAuOC0wLjhsNC0xMy42JiN4QTsmIzk7QzEwMS42LDMyLjgsMTAxLjYsMzIsMTAwLjgsMzJ6IiBzdHlsZT0iZmlsbDojOEVBNUE0OyIvPiYjeGE7PHBhdGggZD0iTTQwMC44LDI2Mi40Yy0wLjgtMS42LTIuNC0yLjQtNC44LTIuNGgtMTJjLTIuNCwwLTQuOCwxLjYtNS42LDRsLTkuNiwzMi44djAuOHYtMC44TDM2MCwyNjQmI3hBOyYjOTtjLTAuOC0yLjQtMy4yLTQtNS42LTRIMzQ0Yy0yLjQsMC00LjgsMS42LTUuNiw0TDMyOCwyOTguNGwwLDBjMCwwLDAsMCwwLTAuOGwtOC44LTMyLjhjLTAuOC0yLjQtMy4yLTQtNS42LTRoLTEyJiN4QTsmIzk7Yy0wLjgsMC0yLjQsMC44LTMuMiwwLjhjLTAuOC0wLjgtMS42LTAuOC0zLjItMC44aC0xMmMtMi40LDAtNC44LDEuNi01LjYsNGwtOS42LDMyLjh2MC44di0wLjhsLTkuNi0zMy42Yy0wLjgtMi40LTMuMi00LTUuNi00JiN4QTsmIzk7aC05LjZjLTIuNCwwLTQuOCwxLjYtNS42LDRsLTExLjIsMzMuNmwwLDBjMCwwLDAsMCwwLTAuOGwtOC44LTMyLjhjLTAuOC0yLjQtMy4yLTQtNS42LTRoLTEyYy0wLjgsMC0yLjQsMC44LTMuMiwwLjgmI3hBOyYjOTtjLTAuOC0wLjgtMS42LTAuOC0zLjItMC44aC0xMmMtMi40LDAtNC44LDEuNi01LjYsNGwtOCwzMy42djAuOHYtMC44TDE1Ny42LDI2NGMtMC44LTIuNC0zLjItNC01LjYtNGgtOS42Yy0yLjQsMC00LjgsMS42LTUuNiw0JiN4QTsmIzk7bC0xMC40LDMzLjZsMCwwYzAsMCwwLDAsMC0wLjhsLTguOC0zMi44Yy0wLjgtMi40LTMuMi00LTUuNi00aC0xMmMtMS42LDAtMy4yLDAuOC00LjgsMi40Yy0wLjgsMS42LTEuNiwzLjItMC44LDQuOGwyMCw2NS42JiN4QTsmIzk7YzAuOCwyLjQsMy4yLDQsNS42LDRoMTEuMmMyLjQsMCw0LjgtMS42LDUuNi00bDEwLjQtMzEuMmMwLTAuOCwwLjgtMS42LDAuOC0yLjRjMCwwLjgsMC44LDEuNiwwLjgsMi40bDkuNiwzMS4yJiN4QTsmIzk7YzAuOCwyLjQsMy4yLDQsNS42LDRoMTEuMmMyLjQsMCw0LjgtMS42LDUuNi00bDE4LjQtNTguNGwxNy42LDU3LjZjMC44LDIuNCwzLjIsNCw1LjYsNGgxMS4yYzIuNCwwLDQuOC0xLjYsNS42LTRsMTAuNC0zMS4yJiN4QTsmIzk7YzAtMC44LDAuOC0xLjYsMC44LTIuNGMwLDAuOCwwLjgsMS42LDAuOCwyLjRsOS42LDMxLjJjMC44LDIuNCwzLjIsNCw1LjYsNGgxMS4yYzIuNCwwLDQuOC0xLjYsNS42LTRsMTguNC01OC40bDE3LjYsNTcuNiYjeEE7JiM5O2MwLjgsMi40LDMuMiw0LDUuNiw0aDEwLjRjMi40LDAsNC44LTEuNiw1LjYtNGwxMC40LTMxLjJjMC0wLjgsMC44LTEuNiwwLjgtMi40YzAsMC44LDAsMS42LDAuOCwyLjRsOS42LDMxLjJjMC44LDIuNCwzLjIsNCw1LjYsNCYjeEE7JiM5O2gxMS4yYzIuNCwwLDQuOC0xLjYsNS42LTRsMjAuOC02NS42QzQwMi40LDI2Ni40LDQwMi40LDI2NCw0MDAuOCwyNjIuNHoiIHN0eWxlPSJmaWxsOiNEQ0U1RTU7Ii8+JiN4YTs8cGF0aCBkPSJNNDAwLjgsMjM4LjRjLTAuOC0xLjYtMi40LTIuNC00LjgtMi40aC0xMmMtMi40LDAtNC44LDEuNi01LjYsNGwtOS42LDMyLjh2MC44di0wLjhMMzYwLDI0MCYjeEE7JiM5O2MtMC44LTIuNC0zLjItNC01LjYtNEgzNDRjLTIuNCwwLTQuOCwxLjYtNS42LDRMMzI4LDI3NC40bDAsMGMwLDAsMCwwLDAtMC44bC04LjgtMzIuOGMtMC44LTIuNC0zLjItNC01LjYtNGgtMTImI3hBOyYjOTtjLTAuOCwwLTIuNCwwLjgtMy4yLDAuOGMtMC44LTAuOC0xLjYtMC44LTMuMi0wLjhoLTEyYy0yLjQsMC00LjgsMS42LTUuNiw0bC05LjYsMzIuOHYwLjh2LTAuOGwtOS42LTMzLjZjLTAuOC0yLjQtMy4yLTQtNS42LTQmI3hBOyYjOTtoLTkuNmMtMi40LDAtNC44LDEuNi01LjYsNGwtMTEuMiwzMy42bDAsMGMwLDAsMCwwLDAtMC44bC04LjgtMzIuOGMtMC44LTIuNC0zLjItNC01LjYtNGgtMTJjLTAuOCwwLTIuNCwwLjgtMy4yLDAuOCYjeEE7JiM5O2MtMC44LTAuOC0xLjYtMC44LTMuMi0wLjhoLTEyYy0yLjQsMC00LjgsMS42LTUuNiw0bC04LDMzLjZ2MC44di0wLjhMMTU3LjYsMjQwYy0wLjgtMi40LTMuMi00LTUuNi00aC05LjZjLTIuNCwwLTQuOCwxLjYtNS42LDQmI3hBOyYjOTtsLTEwLjQsMzMuNmwwLDBjMCwwLDAsMCwwLTAuOGwtOC44LTMyLjhjLTAuOC0yLjQtMy4yLTQtNS42LTRoLTEyYy0xLjYsMC0zLjIsMC44LTQuOCwyLjRjLTAuOCwxLjYtMS42LDMuMi0wLjgsNC44bDIwLDY1LjYmI3hBOyYjOTtjMC44LDIuNCwzLjIsNCw1LjYsNGgxMS4yYzIuNCwwLDQuOC0xLjYsNS42LTRsMTAuNC0zMS4yYzAtMC44LDAuOC0xLjYsMC44LTIuNGMwLDAuOCwwLjgsMS42LDAuOCwyLjRsOS42LDMxLjImI3hBOyYjOTtjMC44LDIuNCwzLjIsNCw1LjYsNGgxMS4yYzIuNCwwLDQuOC0xLjYsNS42LTRsMTguNC01OC40bDE3LjYsNTcuNmMwLjgsMi40LDMuMiw0LDUuNiw0aDExLjJjMi40LDAsNC44LTEuNiw1LjYtNGwxMC40LTMxLjImI3hBOyYjOTtjMC0wLjgsMC44LTEuNiwwLjgtMi40YzAsMC44LDAuOCwxLjYsMC44LDIuNGw5LjYsMzEuMmMwLjgsMi40LDMuMiw0LDUuNiw0aDExLjJjMi40LDAsNC44LTEuNiw1LjYtNGwxOC40LTU4LjRsMTcuNiw1Ny42JiN4QTsmIzk7YzAuOCwyLjQsMy4yLDQsNS42LDRoMTAuNGMyLjQsMCw0LjgtMS42LDUuNi00bDEwLjQtMzEuMmMwLTAuOCwwLjgtMS42LDAuOC0yLjRjMCwwLjgsMCwxLjYsMC44LDIuNGw5LjYsMzEuMmMwLjgsMi40LDMuMiw0LDUuNiw0JiN4QTsmIzk7aDExLjJjMi40LDAsNC44LTEuNiw1LjYtNGwyMC44LTY1LjZDNDAyLjQsMjQyLjQsNDAyLjQsMjQwLDQwMC44LDIzOC40eiIgc3R5bGU9ImZpbGw6I0ZGNjcwMDsiLz4mI3hhOzwvc3ZnPg==;" parent="1" vertex="1">
          <mxGeometry x="100" y="230.25" width="150" height="150" as="geometry" />
        </mxCell>
        <mxCell id="YyHn47AA8LiJZKTJ-ZT5-5" value="Frontend React UI" style="shape=image;verticalLabelPosition=bottom;labelBackgroundColor=default;verticalAlign=top;aspect=fixed;imageAspect=0;editableCssRules=.*;image=data:image/svg+xml,PHN2ZyB4bWxucz0iaHR0cDovL3d3dy53My5vcmcvMjAwMC9zdmciIGZpbGw9Im5vbmUiIHZpZXdCb3g9IjEgMy4wMDAwMDExOTIwOTI4OTU1IDMwIDI2IiBoZWlnaHQ9IjY1MCIgd2lkdGg9Ijc1MCI+JiN4YTs8cGF0aCBmaWxsPSIjNTNDMURFIiBkPSJNMTguNjc4OSAxNS45NzU5QzE4LjY3ODkgMTQuNTQxNSAxNy40Nzk2IDEzLjM3ODUgMTYgMTMuMzc4NUMxNC41MjA2IDEzLjM3ODUgMTMuMzIxMSAxNC41NDE1IDEzLjMyMTEgMTUuOTc1OUMxMy4zMjExIDE3LjQxMDUgMTQuNTIwNiAxOC41NzM0IDE2IDE4LjU3MzRDMTcuNDc5NiAxOC41NzM0IDE4LjY3ODkgMTcuNDEwNSAxOC42Nzg5IDE1Ljk3NTlaIi8+JiN4YTs8cGF0aCBmaWxsPSIjNTNDMURFIiBkPSJNMjQuNzAwNCAxMS4xNTM3QzI1LjI2NjEgOC45MjQ3OCAyNS45NzcyIDQuNzkxNDggMjMuNDcwNCAzLjM5MDE2QzIwLjk3NTMgMS45OTQ5NSAxNy43Mjg0IDQuNjY4NDMgMTYuMDEzOSA2LjI3MzE4QzE0LjMwNDQgNC42ODQ0MiAxMC45NjYzIDIuMDIyMzcgOC40NjE2MyAzLjQyODE0QzUuOTY3NTEgNC44MjgwMyA2LjczNjY0IDguODkyOCA3LjMxNDkgMTEuMTM1N0M0Ljk4ODMxIDExLjc3NjQgMSAxMy4xNTY0IDEgMTUuOTc1OUMxIDE4Ljc4NzQgNC45ODQxNiAyMC4yODg4IDcuMjk2OTggMjAuOTI4OUM2LjcxNjU4IDIzLjE4NDIgNS45ODU5NiAyNy4xOTA5IDguNDgzMjcgMjguNTg3N0MxMC45OTczIDI5Ljk5MzIgMTQuMzI1IDI3LjM5NDUgMTYuMDU1NCAyNS43NzIyQzE3Ljc4MDkgMjcuMzg2NCAyMC45OTY2IDMwLjAwMjEgMjMuNDkyMiAyOC42MDE0QzI1Ljk5NTYgMjcuMTk2MyAyNS4zNDM2IDIzLjExODQgMjQuNzY1MyAyMC44NjI1QzI3LjAwNzMgMjAuMjIxIDMxIDE4Ljc1MjMgMzEgMTUuOTc1OUMzMSAxMy4xODM1IDI2Ljk5MDMgMTEuNzkyMyAyNC43MDA0IDExLjE1MzdaTTI0LjQxNjIgMTkuNjY3QzI0LjAzNjUgMTguNTAxNiAyMy41MjQgMTcuMjYyMyAyMi44OTcxIDE1Ljk4MjFDMjMuNDk1NSAxNC43MzIxIDIzLjk4ODEgMTMuNTA4OCAyNC4zNTcyIDEyLjM1MDlDMjYuMDM1OSAxMi44MjI4IDI5LjcxODUgMTMuOTAxMyAyOS43MTg1IDE1Ljk3NTlDMjkuNzE4NSAxOC4wNyAyNi4xODQ2IDE5LjE1ODcgMjQuNDE2MiAxOS42NjdaTTIyLjg1IDI3LjUyNkMyMC45ODggMjguNTcxIDE4LjIyMjEgMjYuMDY5NiAxNi45NDc4IDI0Ljg4MDlDMTcuNzkzMiAyMy45ODQ0IDE4LjYzOCAyMi45NDIyIDE5LjQ2MjUgMjEuNzg0OUMyMC45MTI5IDIxLjY2MDIgMjIuMjgzIDIxLjQ1NjIgMjMuNTI1NiAyMS4xNzc3QzIzLjkzMjYgMjIuNzczNCAyNC43MjAyIDI2LjQ3NjMgMjIuODUgMjcuNTI2Wk05LjEyMzYyIDI3LjUxMTFDNy4yNjE0MyAyNi40NyA4LjExMjU4IDIyLjg5NDYgOC41Mzk1NyAyMS4yMzMzQzkuNzY4MzQgMjEuNDk2OSAxMS4xMjg2IDIxLjY4NjUgMTIuNTgyNCAyMS44MDA4QzEzLjQxMjMgMjIuOTMzMiAxNC4yODE2IDIzLjk3NDEgMTUuMTU3NiAyNC44ODU3QzE0LjA3NTMgMjUuOTAwOCAxMC45OTQ1IDI4LjU1NyA5LjEyMzYyIDI3LjUxMTFaTTIuMjgxNDkgMTUuOTc1OUMyLjI4MTQ5IDEzLjg3NCA1Ljk0MjA3IDEyLjgwMzMgNy42NTkwNCAxMi4zMzI2QzguMDM0NTEgMTMuNTE2NSA4LjUyNjk1IDE0Ljc1NDQgOS4xMjEyMyAxNi4wMDYyQzguNTE5MjUgMTcuMjc2NiA4LjAxOTc3IDE4LjUzNDEgNy42NDA4NSAxOS43MzJDNi4wMDM2OSAxOS4yNzc2IDIuMjgxNDkgMTguMDc5MSAyLjI4MTQ5IDE1Ljk3NTlaTTkuMTAzNyA0LjUwMzU0QzEwLjk3MzUgMy40NTQxNiAxMy44NzQ3IDYuMDA5ODMgMTUuMTE1OSA3LjE2MDEzQzE0LjI0NDQgOC4wNjc1NCAxMy4zODMxIDkuMTAwNiAxMi41NjAzIDEwLjIyNjVDMTEuMTQ5NCAxMC4zNTMzIDkuNzk4NzUgMTAuNTU2OSA4LjU1NzA5IDEwLjgyOTdDOC4wOTEyNSA5LjAyMDcxIDcuMjM1OTIgNS41NTE3OSA5LjEwMzcgNC41MDM1NFpNMjAuMzc5MyAxMS41NzcxQzIxLjMzNjUgMTEuNjk0MiAyMi4yNTM2IDExLjg1IDIzLjExNDcgMTIuMDQwNkMyMi44NTYyIDEyLjg0NCAyMi41MzQgMTMuNjg0MSAyMi4xNTQ1IDE0LjU0NTNDMjEuNjA0NCAxMy41MzMzIDIxLjAxMzkgMTIuNTQxNiAyMC4zNzkzIDExLjU3NzFaTTE2LjAxNDMgOC4wNDgxQzE2LjYwNTQgOC42Njg5NyAxNy4xOTc0IDkuMzYyMyAxNy43Nzk4IDEwLjExNDVDMTYuNTk4NSAxMC4wNjAzIDE1LjQxNTMgMTAuMDYwMSAxNC4yMzQgMTAuMTEzN0MxNC44MTY5IDkuMzY4NDggMTUuNDE0IDguNjc2MTggMTYuMDE0MyA4LjA0ODFaTTkuODU2NSAxNC41NDQ0QzkuNDgzMjkgMTMuNjg2MiA5LjE2Mzk4IDEyLjg0MjQgOC45MDMyMiAxMi4wMjc1QzkuNzU5MTggMTEuODQxOCAxMC42NzIgMTEuNjkgMTEuNjIzIDExLjU3NDhDMTAuOTg2NiAxMi41MzcyIDEwLjM5NzEgMTMuNTI4NSA5Ljg1NjUgMTQuNTQ0NFpNMTEuNjUwMyAyMC40NjU3QzEwLjY2NzkgMjAuMzU5NCA5Ljc0MTI2IDIwLjIxNTMgOC44ODU1NiAyMC4wMzQ3QzkuMTUwNDQgMTkuMjA1NSA5LjQ3Njc4IDE4LjM0MzUgOS44NTc5NiAxNy40NjY4QzEwLjQwNiAxOC40OTMzIDExLjAwNDUgMTkuNDk0MiAxMS42NTAzIDIwLjQ2NTdaTTE2LjA0OTggMjMuOTkxNUMxNS40NDI0IDIzLjM1NiAxNC44MzY1IDIyLjY1MzEgMTQuMjQ0OCAyMS44OTcxQzE1LjQzMjggMjEuOTQyMyAxNi42MjMxIDIxLjk0MjQgMTcuODExIDIxLjg5MUMxNy4yMjY4IDIyLjY2MDggMTYuNjM2OSAyMy4zNjQ3IDE2LjA0OTggMjMuOTkxNVpNMjIuMTY2NyAxNy40MjIyQzIyLjU2NzcgMTguMzA4NCAyMi45MDU3IDE5LjE2NTcgMjMuMTc0MiAxOS45ODA5QzIyLjMwNDMgMjAuMTczNCAyMS4zNjUyIDIwLjMyODQgMjAuMzc1NyAyMC40NDM1QzIxLjAxNSAxOS40NjA3IDIxLjYxNDkgMTguNDUzNiAyMi4xNjY3IDE3LjQyMjJaTTE4Ljc0NzMgMjAuNTk0MUMxNi45MzAxIDIwLjcyIDE1LjEwMTYgMjAuNzE4NiAxMy4yODM4IDIwLjYwNDRDMTIuMjUwOSAxOS4xNDE1IDExLjMzMTQgMTcuNjAzIDEwLjUzNzcgMTYuMDA1OEMxMS4zMjc2IDE0LjQxMTkgMTIuMjQwNCAxMi44NzY0IDEzLjI2ODQgMTEuNDE1OEMxNS4wODc1IDExLjI4MjUgMTYuOTE3OCAxMS4yODIxIDE4LjczNjkgMTEuNDE2NkMxOS43NTYxIDEyLjg3NzEgMjAuNjY3NSAxNC40MDg2IDIxLjQ3NTcgMTUuOTg4MUMyMC42NzcxIDE3LjU4MTIgMTkuNzU5NSAxOS4xMTk4IDE4Ljc0NzMgMjAuNTk0MVpNMjIuODMwMyA0LjQ2NjZDMjQuNzAwNiA1LjUxMjU0IDIzLjg2ODEgOS4yMjcyNiAyMy40NTk1IDEwLjg0MjZDMjIuMjE0OSAxMC41NjQxIDIwLjg2MzMgMTAuMzU2OSAxOS40NDgzIDEwLjIyODFDMTguNjIzOSA5LjA5MDA0IDE3Ljc2OTggOC4wNTUxOCAxNi45MTI0IDcuMTU5NDlDMTguMTY5NSA1Ljk4NDQxIDIwLjk3ODEgMy40MzA4OSAyMi44MzAzIDQuNDY2NloiIGNsaXAtcnVsZT0iZXZlbm9kZCIgZmlsbC1ydWxlPSJldmVub2RkIi8+JiN4YTs8L3N2Zz4=;points=[[0,0,0,0,0],[0,0.25,0,0,0],[0,0.5,0,0,0],[0,0.75,0,0,0],[0,1,0,0,0],[0.25,0,0,0,0],[0.25,1,0,0,0],[0.5,0,0,0,0],[0.5,1,0,0,0],[0.75,0,0,0,0],[0.75,1,0,0,0],[1,0,0,0,0],[1,0.25,0,0,0],[1,0.5,0,0,0],[1,0.75,0,0,0],[1,1,0,0,0]];fontSize=16;" parent="1" vertex="1">
          <mxGeometry x="499.38" y="170" width="103.84" height="90" as="geometry" />
        </mxCell>
        <mxCell id="YyHn47AA8LiJZKTJ-ZT5-6" value="Backend Go Microservice" style="shape=image;verticalLabelPosition=bottom;labelBackgroundColor=none;verticalAlign=top;aspect=fixed;imageAspect=0;editableCssRules=.*;image=data:image/svg+xml,PHN2ZyB2aWV3Qm94PSIwIDM4LjAyNzk5OTg3NzkyOTY5IDEyOCA1MS45NDA5ODY2MzMzMDA3OCIgaGVpZ2h0PSI4MS4xNTc3OTE2MTQ1MzI0NyIgd2lkdGg9IjIwMCIgeG1sbnM9Imh0dHA6Ly93d3cudzMub3JnLzIwMDAvc3ZnIj4mI3hhOyAgPHBhdGggZD0iTTguODM4IDM4LjAzTDAgNDYuOTM1bDguOTM4IDguODM3TDEyLjQgNTIuMjdsLTMuMTMyLjAxbC01LjM5MS01LjM1MWw1LjM1Mi01LjM5M2wzLjEyOC0uMDEybC0zLjUyLTMuNDk2em0zLjUyIDMuNDk1bC43MTYuNzExbC43MTMtLjcxNmwtMS40My4wMDV6bS43MTYuNzExbC00LjAzMyA0LjA2NWw4LjA5OC0uMDNsLTQuMDY1LTQuMDM1em00LjA2NSA0LjAzNWwuNjAxLjU5OGwtLjYxMy42MjFsMTEuNDE2LS4wNDNsLS42MzUtLjYzbC41ODItLjU4N2wtMTEuMzUxLjA0MXptMTEuMzUxLS4wNGw0LjE3LS4wMTZsLTIuMDg2LTIuMDdsMi4yODEtLjAwOGwyLjY5NiAyLjY3NWwtMi42NzYgMi42OTZsLTIuMjQ4LjAwOEwzMy4xMzEgNTJsNS4xODMtNS4yMjNsLTUuMjIyLTUuMTgzbC00LjYwMiA0LjYzNnptMi4xMzcgMy4yODVsLS4wMTYtLjAxNmwtLjAxNS4wMTZoLjAzMXptLS4wMTYtLjAxNmwyLjA1My0yLjA2OGwtNC4xMjEuMDE1bDIuMDY4IDIuMDUzem0tMTMuNDg0LTIuMDFsLTguMDguMDNsNC4wNjIgNC4wMzNsNC4wMTgtNC4wNjN6bS00LjAxOCA0LjA2M2wtLjcwOS43MThsMS40MjgtLjAwNWwtLjcxOS0uNzEzem0xMDIuMzgxLTcuNzFjLTIuNTE1IDAtNC44NDcuNDQ4LTYuOTk2IDEuMzM5Yy0yLjE0OS44OS00LjAxIDIuMTI1LTUuNTg2IDMuN2MtMS41NzYgMS41NzYtMi44MDkgMy40NDYtMy42OTkgNS42MWMtLjg5MyAyLjE2NS0xLjMzOCA0LjUzNS0xLjMzOCA3LjExM2MwIDIuNTguNDQ0IDQuOTUzIDEuMzM2IDcuMTE4Yy44OSAyLjE2NCAyLjEyNSA0LjAzMyAzLjcwMSA1LjYwOWMxLjU3NiAxLjU3NiAzLjQzNyAyLjgxIDUuNTg2IDMuN2MyLjE1Ljg5IDQuNDggMS4zMzcgNi45OTYgMS4zMzdjMS40IDAgMi43MjktLjE2IDMuOTg3LS40NzZhMTYuNDc3IDE2LjQ3NyAwIDAgMCAzLjUxLTEuMzE1YTEzLjQzMyAxMy40MzMgMCAwIDAgMi44OS0xLjk4QTEzLjExMSAxMy4xMTEgMCAwIDAgMTI4IDczLjE2MmwtMi44MTYtMi4wMDZjLS42MzcuOTg3LTEuMzMgMS44MDctMi4wNzcgMi40NmE5Ljc1NSA5Ljc1NSAwIDAgMS0yLjM4OCAxLjU1MmMtLjg0NC4zODItMS43MDMuNjUyLTIuNTc4LjgxYTE0Ljc2IDE0Ljc2IDAgMCAxLTIuNjUuMjRjLTIuMTY2IDAtNC4xMDgtLjM5OC01LjgyNy0xLjE5NWMtMS43Mi0uNzk1LTMuMTczLTEuODYtNC4zNjctMy4xOTljLTEuMTkzLTEuMzM2LTIuMTEtMi44ODctMi43NDYtNC42NTRhMTYuMjc4IDE2LjI3OCAwIDAgMS0uOTU1LTUuNTY1YzAtMS45NC4zMTktMy43OTQuOTU1LTUuNTZjLjYzNy0xLjc2NyAxLjU1My0zLjMyIDIuNzQ2LTQuNjU2YzEuMTk0LTEuMzM3IDIuNjQ4LTIuNDA0IDQuMzY3LTMuMmMxLjcyLS43OTUgMy42Ni0xLjE5MyA1LjgyNi0xLjE5M2MuODkgMCAxLjc4Mi4xMjggMi42NzQuMzgzYy44OS4yNTUgMS43MjguNTg5IDIuNTA4IDEuMDAyYy43OC40MTQgMS40NzEuODkgMi4wNzYgMS40MzFjLjYwNS41NDIgMS4wODMgMS4wODMgMS40MzQgMS42MjRsMy4wMDUtMi4yNDVjLTEuNDk1LTEuOTEtMy4yOTMtMy4yNzYtNS4zOTQtNC4xMDVjLTIuMS0uODI3LTQuMjAyLTEuMjQtNi4zMDMtMS4yNHYtLjAwMnptLTcxLjUyNS44NlY3OC41MWgzLjQzN1Y2Mi44aDUuNzNsOS4yNjMgMTUuNzFoNC4yMDNsLTkuNzQzLTE2LjA0M2MyLjgtLjI1NCA0Ljk0NC0xLjE4NiA2LjQyNC0yLjc5M2MxLjQ4LTEuNjA3IDIuMjE5LTMuNTkgMi4yMTktNS45NDVjMC0zLjAyNC0uOTkzLTUuMjg1LTIuOTgyLTYuNzgyYy0xLjk5LTEuNDk2LTQuNzA1LTIuMjQ0LTguMTQzLTIuMjQ0SDQzLjk2NXptMjguNTUzIDBWNzguNTFoMy40MzdWNjIuOGg2LjM5OWMzLjQzNyAwIDYuMTUxLS43NTcgOC4xNC0yLjI2OWMxLjk5LTEuNTEgMi45ODUtMy43NzggMi45ODUtNi44MDJjMC0zLjAyNC0uOTk2LTUuMjg1LTIuOTg1LTYuNzgyYy0xLjk5LTEuNDk2LTQuNzAzLTIuMjQ0LTguMTQtMi4yNDRoLTkuODM2em0tMjUuMTE2IDMuMTUyaDYuMTEyYzEuNTI4IDAgMi44MjMuMTUyIDMuODkuNDU0YzEuMDY2LjMwMyAxLjkyLjcyNCAyLjU1NyAxLjI2NWMuNjM2LjU0MiAxLjA5NyAxLjE3IDEuMzgzIDEuODg3Yy4yODcuNzE2LjQzIDEuNDcyLjQzIDIuMjY4YzAgLjgyOC0uMTQzIDEuNi0uNDMgMi4zMTZhNC42MjEgNC42MjEgMCAwIDEtMS4zODMgMS44NjFjLS42MzcuNTI1LTEuNDkuOTQ4LTIuNTU3IDEuMjY2Yy0xLjA2Ny4zMTgtMi4zNjIuNDc2LTMuODkuNDc2aC02LjExMlY0Ny44NTV6bTI4LjU1MyAwaDUuNTRjMS41MjcgMCAyLjgyMy4xNTIgMy44OS40NTRjMS4wNjYuMzAzIDEuOTE3LjcyNCAyLjU1NCAxLjI2NWMuNjM2LjU0MiAxLjA5OCAxLjE3IDEuMzg1IDEuODg3YTYuMDUgNi4wNSAwIDAgMSAuNDMyIDIuMjY4YzAgLjgyOC0uMTQ2IDEuNi0uNDMyIDIuMzE2YTQuNjIzIDQuNjIzIDAgMCAxLTEuMzg1IDEuODYxYy0uNjM3LjUyNS0xLjQ4OC45NDgtMi41NTQgMS4yNjZjLTEuMDY3LjMxOC0yLjM2My40NzYtMy44OS40NzZoLTUuNTRWNDcuODU1ek0yMi42NyA1NS41OWMtMS42NTUgMC0zLjE3Ny4yOTYtNC41Ni44ODVhMTAuNjYgMTAuNjYgMCAwIDAtMy41ODMgMi40NTlhMTEuNjU4IDExLjY1OCAwIDAgMC0yLjM2MyAzLjY3NWMtLjU3MyAxLjQwMS0uODYgMi45MTMtLjg2IDQuNTM3YzAgMS42MjMuMzA0IDMuMTM2LjkwOSA0LjUzNmExMC44NzIgMTAuODcyIDAgMCAwIDIuNDggMy42MDVhMTEuNiAxMS42IDAgMCAwIDMuNzAyIDIuMzYzYzEuNDE2LjU3MyAyLjkzNy44NiA0LjU2Ljg2YTExLjQ5IDExLjQ5IDAgMCAwIDQuNjMzLS45NTVjMS40NjQtLjYzNiAyLjcwNC0xLjcyIDMuNzIzLTMuMjQ2aC4wOTV2NC4wMWMwIDEuMjEtLjE1IDIuMzQ2LS40NTMgMy40MTNhNy4yNzQgNy4yNzQgMCAwIDEtMS40OCAyLjc5M2MtLjY4NS43OTUtMS41ODQgMS40MjUtMi42OTggMS44ODdjLTEuMTE1LjQ2LTIuNDY2LjY5Mi00LjA1OC42OTJjLTEuODE0IDAtMy40NjQtLjM3NS00Ljk0NC0xLjEyMmMtMS40OC0uNzQ4LTIuNjgtMS43NDItMy42MDMtMi45ODRsLTIuMzQyIDIuNDgyYzEuNDMzIDEuNTI4IDMuMDI2IDIuNjU4IDQuNzc3IDMuMzkxYzEuNzUuNzMyIDMuNzQgMS4wOTggNS45NjcgMS4wOThjMi41MTQgMCA0LjU1NC0uMzggNi4xMTQtMS4xNDVjMS41Ni0uNzY0IDIuNzc2LTEuNzIgMy42NTItMi44NjVhOS41NTMgOS41NTMgMCAwIDAgMS43NjYtMy43NzJjLjMwMy0xLjM3LjQ1NS0yLjY1OS40NTUtMy44NjlWNTYuMTYyaC0zLjE1M3YzLjcyN2gtLjA5NWMtLjYzNy0uODYtMS4zMi0xLjU2OC0yLjA1My0yLjEyNWExMC40NiAxMC40NiAwIDAgMC0yLjIyLTEuMzE1YTEwLjA2IDEwLjA2IDAgMCAwLTIuMjQ1LS42NjhhMTIuNzQ2IDEyLjc0NiAwIDAgMC0yLjEyMy0uMTl2LS4wMDF6bS4zOCAyLjg2NWMxLjMwNiAwIDIuNDg0LjIzMiAzLjUzNC42OTNjMS4wNS40NjEgMS45NDIgMS4wODIgMi42NzQgMS44NjJhNy45NjggNy45NjggMCAwIDEgMS42NzIgMi43MmE5LjUxIDkuNTEgMCAwIDEgLjU3NCAzLjMyYy4wMyAxLjMwNi0uMTcgMi40ODItLjYgMy41MzJhNy42MSA3LjYxIDAgMCAxLTEuODM4IDIuN2E4LjY2NSA4LjY2NSAwIDAgMS0yLjc0NCAxLjc0MWE4LjcxOCA4LjcxOCAwIDAgMS0zLjI3MS42MjJjLTEuMTc4IDAtMi4yNy0uMjMyLTMuMjcyLS42OTJhOC41NDIgOC41NDIgMCAwIDEtMi42MjUtMS44NjFhOC43MTggOC43MTggMCAwIDEtMS43NjctMi43MjNhOC41NTYgOC41NTYgMCAwIDEtLjY0NS0zLjMxOGE4LjU5IDguNTkgMCAwIDEgLjY0NS0zLjMyYTguNzM0IDguNzM0IDAgMCAxIDEuNzY3LTIuNzJhOC41NjYgOC41NjYgMCAwIDEgMi42MjUtMS44NjNhNy43NTcgNy43NTcgMCAwIDEgMy4yNzItLjY5M3oiIGZpbGw9ImN1cnJlbnRDb2xvciIvPiYjeGE7PC9zdmc+;fontSize=18;labelBorderColor=none;perimeterSpacing=1;strokeWidth=2;" parent="1" vertex="1">
          <mxGeometry x="880" y="314.05" width="163.46" height="66.2" as="geometry" />
        </mxCell>
        <mxCell id="YyHn47AA8LiJZKTJ-ZT5-13" value="" style="edgeStyle=orthogonalEdgeStyle;html=1;endArrow=none;elbow=vertical;startArrow=open;startFill=0;strokeColor=#545B64;rounded=0;fontSize=13;strokeWidth=3;flowAnimation=1;flowAnimationDirection=reverse;" parent="1" edge="1">
          <mxGeometry width="100" relative="1" as="geometry">
            <mxPoint x="623.96" y="390.25" as="sourcePoint" />
            <mxPoint x="823.96" y="390.75" as="targetPoint" />
          </mxGeometry>
        </mxCell>
        <mxCell id="YyHn47AA8LiJZKTJ-ZT5-14" value="&lt;div&gt;GRPC streaming over HTTP3&lt;/div&gt;&lt;div&gt;&lt;br&gt;&lt;/div&gt;" style="edgeLabel;html=1;align=center;verticalAlign=middle;resizable=0;points=[];fontSize=13;" parent="YyHn47AA8LiJZKTJ-ZT5-13" vertex="1" connectable="0">
          <mxGeometry x="0.08" y="-1" relative="1" as="geometry">
            <mxPoint x="-6" y="19" as="offset" />
          </mxGeometry>
        </mxCell>
        <mxCell id="YyHn47AA8LiJZKTJ-ZT5-17" value="" style="edgeStyle=orthogonalEdgeStyle;html=1;endArrow=block;elbow=vertical;startArrow=block;startFill=1;endFill=1;strokeColor=#545B64;rounded=0;strokeWidth=3;" parent="1" edge="1">
          <mxGeometry width="100" relative="1" as="geometry">
            <mxPoint x="613.96" y="350.25" as="sourcePoint" />
            <mxPoint x="823.96" y="350.25" as="targetPoint" />
          </mxGeometry>
        </mxCell>
        <mxCell id="YyHn47AA8LiJZKTJ-ZT5-18" value="Request / Response GPRC over HTTP3" style="edgeLabel;html=1;align=center;verticalAlign=middle;resizable=0;points=[];fontSize=13;" parent="YyHn47AA8LiJZKTJ-ZT5-17" vertex="1" connectable="0">
          <mxGeometry x="-0.3429" y="5" relative="1" as="geometry">
            <mxPoint x="51" y="-25" as="offset" />
          </mxGeometry>
        </mxCell>
        <mxCell id="YyHn47AA8LiJZKTJ-ZT5-19" value="" style="edgeStyle=orthogonalEdgeStyle;html=1;endArrow=none;elbow=vertical;startArrow=open;startFill=0;strokeColor=#545B64;rounded=0;fontSize=13;strokeWidth=3;flowAnimation=1;flowAnimationDirection=reverse;" parent="1" edge="1">
          <mxGeometry width="100" relative="1" as="geometry">
            <mxPoint x="265" y="387" as="sourcePoint" />
            <mxPoint x="465" y="387.5" as="targetPoint" />
          </mxGeometry>
        </mxCell>
        <mxCell id="YyHn47AA8LiJZKTJ-ZT5-20" value="SSE over HTTP3" style="edgeLabel;html=1;align=center;verticalAlign=middle;resizable=0;points=[];fontSize=13;" parent="YyHn47AA8LiJZKTJ-ZT5-19" vertex="1" connectable="0">
          <mxGeometry x="0.08" y="-1" relative="1" as="geometry">
            <mxPoint x="8" y="20" as="offset" />
          </mxGeometry>
        </mxCell>
        <mxCell id="YyHn47AA8LiJZKTJ-ZT5-21" value="" style="edgeStyle=orthogonalEdgeStyle;html=1;endArrow=block;elbow=vertical;startArrow=block;startFill=1;endFill=1;strokeColor=#545B64;rounded=0;strokeWidth=3;" parent="1" edge="1">
          <mxGeometry width="100" relative="1" as="geometry">
            <mxPoint x="255" y="235" as="sourcePoint" />
            <mxPoint x="465" y="235" as="targetPoint" />
          </mxGeometry>
        </mxCell>
        <mxCell id="YyHn47AA8LiJZKTJ-ZT5-22" value="Request / Response over HTTP3" style="edgeLabel;html=1;align=center;verticalAlign=middle;resizable=0;points=[];fontSize=13;" parent="YyHn47AA8LiJZKTJ-ZT5-21" vertex="1" connectable="0">
          <mxGeometry x="-0.3429" y="5" relative="1" as="geometry">
            <mxPoint x="51" y="-25" as="offset" />
          </mxGeometry>
        </mxCell>
        <mxCell id="YyHn47AA8LiJZKTJ-ZT5-27" value="Subscription" style="text;html=1;align=center;verticalAlign=middle;whiteSpace=wrap;rounded=0;fontSize=14;" parent="1" vertex="1">
          <mxGeometry x="325" y="354.75" width="110" height="30" as="geometry" />
        </mxCell>
        <mxCell id="nR7kZWWaQg0F3DTDBdpg-1" value="&lt;h3 class=&quot;agenda-element-title&quot;&gt;&lt;a data-bs-target=&quot;#modal-199fc93d-e4f7-4c4e-94d6-10da78be0e8c&quot; data-bs-toggle=&quot;modal&quot; data-target=&quot;#modal-199fc93d-e4f7-4c4e-94d6-10da78be0e8c&quot; data-toggle=&quot;modal&quot;&gt;Designing real-time APIs - DEMO&lt;/a&gt;&lt;/h3&gt;" style="text;strokeColor=none;fillColor=none;html=1;fontSize=24;fontStyle=1;verticalAlign=middle;align=center;" parent="1" vertex="1">
          <mxGeometry x="60" y="110" width="470" height="40" as="geometry" />
        </mxCell>
        <mxCell id="nR7kZWWaQg0F3DTDBdpg-5" value="" style="edgeStyle=orthogonalEdgeStyle;html=1;endArrow=block;elbow=vertical;startArrow=block;startFill=1;endFill=1;strokeColor=#545B64;rounded=0;strokeWidth=3;" parent="1" edge="1">
          <mxGeometry width="100" relative="1" as="geometry">
            <mxPoint x="258" y="336" as="sourcePoint" />
            <mxPoint x="468" y="336" as="targetPoint" />
          </mxGeometry>
        </mxCell>
        <mxCell id="nR7kZWWaQg0F3DTDBdpg-6" value="Query / Mutation over HTTP3" style="edgeLabel;html=1;align=center;verticalAlign=middle;resizable=0;points=[];fontSize=13;" parent="nR7kZWWaQg0F3DTDBdpg-5" vertex="1" connectable="0">
          <mxGeometry x="-0.3429" y="5" relative="1" as="geometry">
            <mxPoint x="51" y="-25" as="offset" />
          </mxGeometry>
        </mxCell>
        <mxCell id="6WTUHcYG1nQFbl8X_0U9-1" value="" style="rounded=1;whiteSpace=wrap;html=1;fillColor=none;strokeColor=#9673A6;strokeWidth=2;" vertex="1" parent="1">
          <mxGeometry x="862.59" y="308.81" width="198.27" height="76.68" as="geometry" />
        </mxCell>
      </root>
    </mxGraphModel>
  </diagram>
</mxfile>
